<?xml version="1.0" encoding="utf-8"?><svg xml:space="preserve" viewBox="0 0 100 100" y="0" x="0" xmlns="http://www.w3.org/2000/svg" id="Layer_1" version="1.1" width="200px" height="200px" xmlns:xlink="http://www.w3.org/1999/xlink" style="width:100%;height:100%;background-size:initial;background-repeat-y:initial;background-repeat-x:initial;background-position-y:initial;background-position-x:initial;background-origin:initial;background-image:initial;background-color:rgb(0, 0, 0);background-clip:initial;background-attachment:initial;animation-play-state:paused" ><g class="ldl-scale" style="transform-origin:50% 50%;transform:rotate(0deg) scale(0.8, 0.8);animation-play-state:paused" ><g style="animation-play-state:paused" ><path fill="#d65a62" d="M85.7 31.9H14.3c-2.4 0-4.3-1.9-4.3-4.3s1.9-4.3 4.3-4.3h71.5c2.4 0 4.3 1.9 4.3 4.3-.1 2.4-2 4.3-4.4 4.3z" style="fill:rgb(214, 90, 98);animation-play-state:paused" ></path></g>
<g style="animation-play-state:paused" ><path fill="#d65a62" d="M85.7 46.8H14.3c-2.4 0-4.3-1.9-4.3-4.3s1.9-4.3 4.3-4.3h71.5c2.4 0 4.3 1.9 4.3 4.3-.1 2.4-2 4.3-4.4 4.3z" style="fill:rgb(214, 90, 98);animation-play-state:paused" ></path></g>
<g style="animation-play-state:paused" ><path fill="#d65a62" d="M85.7 61.7H14.3c-2.4 0-4.3-1.9-4.3-4.3s1.9-4.3 4.3-4.3h71.5c2.4 0 4.3 1.9 4.3 4.3-.1 2.4-2 4.3-4.4 4.3z" style="fill:rgb(214, 90, 98);animation-play-state:paused" ></path></g>
<g style="animation-play-state:paused" ><path fill="#d65a62" d="M85.7 76.7H14.3c-2.4 0-4.3-1.9-4.3-4.3s1.9-4.3 4.3-4.3h71.5c2.4 0 4.3 1.9 4.3 4.3-.1 2.4-2 4.3-4.4 4.3z" style="fill:rgb(214, 90, 98);animation-play-state:paused" ></path></g>
<metadata xmlns:d="https://loading.io/stock/" style="animation-play-state:paused" ><d:name style="animation-play-state:paused" >menu</d:name>
<d:tags style="animation-play-state:paused" >hamburger,bars,stripe,navigation,navbar,dropdown,menu,web application</d:tags>
<d:license style="animation-play-state:paused" >free</d:license>
<d:slug style="animation-play-state:paused" >q66yng</d:slug></metadata></g><!-- generated by https://loading.io/ --></svg>